<?xml version="1.0" encoding="UTF-8" standalone="no"?> <svg xmlns="http://www.w3.org/2000/svg" xmlns:xlink="http://www.w3.org/1999/xlink" viewBox="0 0 64 64"><defs><style>.cls-1{fill:url(#linear-gradient);}</style><linearGradient id="linear-gradient" x1="10.5" y1="31.26" x2="53.5" y2="31.26" gradientUnits="userSpaceOnUse"><stop offset="0" stop-color="#17a6d7"/><stop offset="1" stop-color="#9d31fe"/></linearGradient></defs><g id="Layer_7" data-name="Layer 7"><path class="cls-1" d="M52,6.56H42.63V4a1.5,1.5,0,0,0-1.5-1.5H22.87A1.5,1.5,0,0,0,21.37,4V6.56H12a1.5,1.5,0,0,0-1.5,1.5V58.52A1.5,1.5,0,0,0,12,60H52a1.5,1.5,0,0,0,1.5-1.5V8.06A1.5,1.5,0,0,0,52,6.56ZM24.37,5.5H39.63V11H24.37ZM50.5,57h-37V9.56h7.87v2.93a1.5,1.5,0,0,0,1.5,1.5H41.13a1.5,1.5,0,0,0,1.5-1.5V9.56H50.5Z"/></g></svg>